# xmcd
#
# Track frame offsets: 
#        150
#        13538
#        28557
#        42817
#        58538
#        75657
#        94594
#        108219
#        124302
#        139530
#        152552
#        167432
#        180416
#        198199
#        213952
#        230047
#        245796
#        263907
#
# Disc length: 3710 seconds
#
# Revision: 2
# Processed by: cddbd v1.5.2PL0 Copyright (c) Steve Scherf et al.
# Submitted via: ExactAudioCopy v0.99pb5
#
DISCID=e10e7c12
DTITLE=Various Artist - Hott Country 062
DYEAR=2001
DGENRE=Country
TTITLE0=Jason McCoy - Bury My Heart
TTITLE1=Brooks and Dunn - Ain't Nothing 'Bout You
TTITLE2=Lorrie Morgan and Sammy Kershaw - He Drinks Tequila
TTITLE3=Chris Cagle - Country By The Grace Of God
TTITLE4=Carolyn Dawn Johnson - Complicated
TTITLE5=Randy Travis - Down With the Old Man ( Up With the New )
TTITLE6=Meredith Edwards - A Rose Is A Rose
TTITLE7=Tyler England - I Drove Her To Dallas
TTITLE8=Kenny Chesney - Don't Happen Twice
TTITLE9=Jolie And The Wanted - Boom
TTITLE10=Denise Murray - Thing Called Love
TTITLE11=Chris LeDoux - He Rides The Wild Horses
TTITLE12=Sara Evans - I Could Not Ask For More
TTITLE13=Stephanie Beaumont - Who Says
TTITLE14=Brad Paisley and Chely Wright - Hard To Be A Husband, Hard To
TTITLE14=Be A Wife
TTITLE15=Colin Raye - You Still Take Me There
TTITLE16=Leslie Satcher - Love Letters From Old Mexico
TTITLE17=Clay Walker - Say No More
EXTD=
EXTT0=
EXTT1=
EXTT2=
EXTT3=
EXTT4=
EXTT5=
EXTT6=
EXTT7=
EXTT8=
EXTT9=
EXTT10=
EXTT11=
EXTT12=
EXTT13=
EXTT14=
EXTT15=
EXTT16=
EXTT17=
PLAYORDER=
